<svg width="1.875em" height="1.5em" version="1.1" id="Layer_1" xmlns="http://www.w3.org/2000/svg" xmlns:xlink="http://www.w3.org/1999/xlink" x="0px" y="0px"
	 viewBox="0 0 500 500" enable-background="new 0 0 500 500" xml:space="preserve">
<path fill="#000000" opacity="1.000000" stroke="none" 
	d="
M287.000000,501.000000 
	C191.333359,501.000000 96.166710,501.000000 1.000051,501.000000 
	C1.000034,334.333405 1.000034,167.666794 1.000017,1.000141 
	C167.666565,1.000094 334.333130,1.000094 500.999756,1.000047 
	C500.999847,167.666519 500.999847,334.333038 500.999939,500.999786 
	C429.833344,501.000000 358.666656,501.000000 287.000000,501.000000 
M221.775528,420.998962 
	C221.889511,420.319366 222.003510,419.639740 222.297668,418.239563 
	C223.198029,416.559204 224.219589,414.927917 224.931152,413.171082 
	C225.170944,412.579041 224.203705,411.308197 224.502396,410.959717 
	C227.067047,407.967072 228.552139,404.791016 227.092087,400.803314 
	C227.050873,400.690765 227.164810,400.427582 227.278000,400.365784 
	C230.864655,398.407654 229.553345,394.961182 229.982834,391.140961 
	C229.010559,386.584564 228.498001,381.866364 226.964096,377.507599 
	C224.302368,369.944061 220.978897,362.614899 217.987595,355.165466 
	C213.848160,344.856842 209.795853,334.513062 205.603333,324.226227 
	C205.070602,322.919098 203.917847,321.864685 203.105850,320.765625 
	C195.632706,339.239838 188.399689,357.120483 180.841873,375.684509 
	C179.527191,378.944366 178.178955,382.191162 176.903885,385.466431 
	C172.311493,397.263153 167.743744,409.069519 162.947174,421.531006 
	C163.408478,422.020508 163.869400,422.937531 164.331146,422.937927 
	C183.220581,422.954559 202.110123,422.888733 221.544891,422.909424 
	C221.377579,422.568420 221.210266,422.227386 221.032791,421.460693 
	C221.032791,421.460693 221.114349,421.042755 221.775528,420.998962 
M322.947998,170.394623 
	C323.980774,167.514954 324.913574,164.594437 326.069611,161.765121 
	C327.836365,157.441025 329.378662,152.962769 331.688507,148.935547 
	C337.120941,139.464188 346.332733,136.203964 356.462982,136.103210 
	C385.786896,135.811569 415.115570,135.999985 444.442383,135.999985 
	C446.209442,135.999985 447.976501,135.999985 449.998962,135.999985 
	C449.998962,119.782127 450.011688,104.143898 449.966766,88.505844 
	C449.964142,87.588791 449.547211,86.655441 449.236938,85.759521 
	C446.583405,78.096466 439.939606,77.086197 433.389771,77.080368 
	C310.417236,76.970901 187.444580,76.999847 64.471962,76.999916 
	C63.805443,76.999916 63.124538,76.910889 62.474579,77.014877 
	C53.560665,78.441101 47.854698,80.252907 48.958015,91.339211 
	C49.237167,94.144127 48.999836,97.000450 48.999836,99.833153 
	C48.999836,111.775116 48.999836,123.717087 48.999836,135.999985 
	C50.949783,135.999985 52.418541,135.999985 53.887302,135.999985 
	C83.047478,135.999985 112.208916,135.841217 141.367249,136.073395 
	C154.109909,136.174850 164.386353,140.781693 169.358322,153.751694 
	C173.384308,164.253967 177.930542,174.556137 182.002045,185.041794 
	C189.165176,203.489456 195.948212,222.086334 203.246704,240.479340 
	C211.982147,262.493652 221.114395,284.350281 230.031570,306.292755 
	C237.733444,325.244690 245.363083,344.225983 253.046112,363.185547 
	C261.098297,383.056091 269.176117,402.916260 277.260498,422.824738 
	C296.785126,422.824738 316.248444,422.824738 336.277802,422.824738 
	C335.829132,421.196716 335.590576,419.806549 335.072601,418.529724 
	C326.167236,396.577698 317.068268,374.702789 308.334778,352.682800 
	C297.069458,324.279266 286.136780,295.743958 274.970123,267.300995 
	C268.729462,251.405151 262.370941,235.554688 255.947922,219.731506 
	C246.496429,196.447723 236.867355,173.235519 227.558670,149.895218 
	C226.770813,147.919754 227.233139,144.946411 228.142563,142.891586 
	C230.421249,137.742935 235.143600,136.070038 240.415009,136.029312 
	C252.409943,135.936646 264.406067,136.000092 276.681427,136.000092 
	C275.729736,138.562653 275.021667,141.037201 273.926117,143.326294 
	C267.181702,157.418533 266.841980,171.423065 274.041321,185.492233 
	C275.870819,189.067505 277.428741,192.808929 278.798248,196.587540 
	C283.558624,209.721848 288.181335,222.906036 292.856415,236.071243 
	C293.378937,236.161575 293.901459,236.251892 294.423981,236.342224 
	C295.626129,234.567642 297.150482,232.930023 297.973267,230.994202 
	C301.124634,223.579590 304.023041,216.057922 307.066895,208.597046 
	C312.179291,196.065842 317.330658,183.550537 322.947998,170.394623 
z"/>
<path fill="#BF9EFF" opacity="1.000000" stroke="none" 
	d="
M322.706818,170.711578 
	C317.330658,183.550537 312.179291,196.065842 307.066895,208.597046 
	C304.023041,216.057922 301.124634,223.579590 297.973267,230.994202 
	C297.150482,232.930023 295.626129,234.567642 294.423981,236.342224 
	C293.901459,236.251892 293.378937,236.161575 292.856415,236.071243 
	C288.181335,222.906036 283.558624,209.721848 278.798248,196.587540 
	C277.428741,192.808929 275.870819,189.067505 274.041321,185.492233 
	C266.841980,171.423065 267.181702,157.418533 273.926117,143.326294 
	C275.021667,141.037201 275.729736,138.562653 276.681427,136.000092 
	C264.406067,136.000092 252.409943,135.936646 240.415009,136.029312 
	C235.143600,136.070038 230.421249,137.742935 228.142563,142.891586 
	C227.233139,144.946411 226.770813,147.919754 227.558670,149.895218 
	C236.867355,173.235519 246.496429,196.447723 255.947922,219.731506 
	C262.370941,235.554688 268.729462,251.405151 274.970123,267.300995 
	C286.136780,295.743958 297.069458,324.279266 308.334778,352.682800 
	C317.068268,374.702789 326.167236,396.577698 335.072601,418.529724 
	C335.590576,419.806549 335.829132,421.196716 336.277802,422.824738 
	C316.248444,422.824738 296.785126,422.824738 277.260498,422.824738 
	C269.176117,402.916260 261.098297,383.056091 253.046112,363.185547 
	C245.363083,344.225983 237.733444,325.244690 230.031570,306.292755 
	C221.114395,284.350281 211.982147,262.493652 203.246704,240.479340 
	C195.948212,222.086334 189.165176,203.489456 182.002045,185.041794 
	C177.930542,174.556137 173.384308,164.253967 169.358322,153.751694 
	C164.386353,140.781693 154.109909,136.174850 141.367249,136.073395 
	C112.208916,135.841217 83.047478,135.999985 53.887302,135.999985 
	C52.418541,135.999985 50.949783,135.999985 48.999836,135.999985 
	C48.999836,123.717087 48.999836,111.775116 48.999836,99.833153 
	C48.999836,97.000450 49.237167,94.144127 48.958015,91.339211 
	C47.854698,80.252907 53.560665,78.441101 62.474579,77.014877 
	C63.124538,76.910889 63.805443,76.999916 64.471962,76.999916 
	C187.444580,76.999847 310.417236,76.970901 433.389771,77.080368 
	C439.939606,77.086197 446.583405,78.096466 449.236938,85.759521 
	C449.547211,86.655441 449.964142,87.588791 449.966766,88.505844 
	C450.011688,104.143898 449.998962,119.782127 449.998962,135.999985 
	C447.976501,135.999985 446.209442,135.999985 444.442383,135.999985 
	C415.115570,135.999985 385.786896,135.811569 356.462982,136.103210 
	C346.332733,136.203964 337.120941,139.464188 331.688507,148.935547 
	C329.378662,152.962769 327.836365,157.441025 326.069611,161.765121 
	C324.913574,164.594437 323.980774,167.514954 322.706818,170.711578 
z"/>
<path fill="#C09FFF" opacity="1.000000" stroke="none" 
	d="
M229.833466,392.000641 
	C229.553345,394.961182 230.864655,398.407654 227.278000,400.365784 
	C227.164810,400.427582 227.050873,400.690765 227.092087,400.803314 
	C228.552139,404.791016 227.067047,407.967072 224.502396,410.959717 
	C224.203705,411.308197 225.170944,412.579041 224.931152,413.171082 
	C224.219589,414.927917 223.198029,416.559204 221.821747,418.619476 
	C220.356934,419.121063 219.367325,419.354095 218.379257,419.347717 
	C203.256210,419.250305 188.133224,419.058289 173.010651,419.089874 
	C171.339096,419.093384 169.670151,420.333435 167.516479,420.997803 
	C165.744217,420.954468 164.455460,420.913361 163.166702,420.872223 
	C167.743744,409.069519 172.311493,397.263153 176.903885,385.466431 
	C178.178955,382.191162 179.527191,378.944366 181.355927,375.408447 
	C194.209381,379.795654 206.519547,384.538818 218.906723,389.071533 
	C222.433945,390.362213 226.185043,391.041168 229.833466,392.000641 
z"/>
<path fill="#BF9EFF" opacity="1.000000" stroke="none" 
	d="
M229.908142,391.570801 
	C226.185043,391.041168 222.433945,390.362213 218.906723,389.071533 
	C206.519547,384.538818 194.209381,379.795654 181.518311,375.066772 
	C188.399689,357.120483 195.632706,339.239838 203.105850,320.765625 
	C203.917847,321.864685 205.070602,322.919098 205.603333,324.226227 
	C209.795853,334.513062 213.848160,344.856842 217.987595,355.165466 
	C220.978897,362.614899 224.302368,369.944061 226.964096,377.507599 
	C228.498001,381.866364 229.010559,386.584564 229.908142,391.570801 
z"/>
<path fill="#BF9EFF" opacity="1.000000" stroke="none" 
	d="
M163.056946,421.201599 
	C164.455460,420.913361 165.744217,420.954468 167.985138,420.997803 
	C186.329666,421.014252 203.722000,421.028503 221.114349,421.042755 
	C221.114349,421.042755 221.032791,421.460693 221.021332,421.910034 
	C221.009872,422.359406 220.999634,422.833344 220.999634,422.833374 
	C202.110123,422.888733 183.220581,422.954559 164.331146,422.937927 
	C163.869400,422.937531 163.408478,422.020508 163.056946,421.201599 
z"/>
<path fill="#BF9EFF" opacity="1.000000" stroke="none" 
	d="
M221.444946,421.020874 
	C203.722000,421.028503 186.329666,421.014252 168.468658,421.000000 
	C169.670151,420.333435 171.339096,419.093384 173.010651,419.089874 
	C188.133224,419.058289 203.256210,419.250305 218.379257,419.347717 
	C219.367325,419.354095 220.356934,419.121063 221.731659,418.979767 
	C222.003510,419.639740 221.889511,420.319366 221.444946,421.020874 
z"/>
<path fill="#BF9EFF" opacity="1.000000" stroke="none" 
	d="
M221.272263,422.871399 
	C220.999634,422.833344 221.009872,422.359406 221.026398,422.122894 
	C221.210266,422.227386 221.377579,422.568420 221.272263,422.871399 
z"/>
</svg>