<svg width="663" height="118" viewBox="0 0 663 118" fill="none" xmlns="http://www.w3.org/2000/svg">
<path d="M0 4.35228V19.4881H33.1124C36.6527 19.4881 39.8379 21.6447 41.1544 24.9316L77.9521 116.928H97.4402L60.5602 24.7303C59.5577 22.2185 61.4068 19.4881 64.1114 19.4881H77.9521L75.9687 24.4467C74.7302 27.543 74.7302 30.9989 75.9687 34.0975L83.7834 53.6311L95.2619 24.9316C96.5784 21.6447 99.7615 19.4881 103.304 19.4881H136.416V4.35228C136.416 1.94876 134.467 0 132.062 0H4.35453C1.94882 0 0 1.94876 0 4.35228Z" fill="black"/>
<path d="M38.976 116.929H58.464L60.4474 111.97C61.686 108.871 61.686 105.415 60.4474 102.319L52.6327 82.7832L38.976 116.929Z" fill="black"/>
<path d="M167.089 2.52466H191.384L233.82 115.475H210.313L201.006 88.4993H157.466L148.159 115.475H124.652L167.089 2.52466ZM194.064 68.9377L183.97 40.6996L179.868 26.9757H178.606L174.505 40.6996L164.408 68.9377H194.064Z" fill="black"/>
<path d="M226.562 2.52466H249.594L272.941 70.5163L277.042 85.0283H278.305L282.722 70.5163L307.017 2.52466H330.05L288.876 115.475H266.473L226.562 2.52466Z" fill="black"/>
<path d="M392.046 118C383.629 118 375.821 116.473 368.619 113.425C361.415 110.376 355.183 106.195 349.926 100.883C344.666 95.5736 340.539 89.3157 337.542 82.1117C334.543 74.9098 333.047 67.2034 333.047 58.9989C333.047 50.7966 334.543 43.0946 337.542 35.8904C340.539 28.6863 344.666 22.4285 349.926 17.117C355.183 11.8054 361.415 7.62629 368.619 4.5753C375.821 1.52436 383.629 0 392.046 0C400.458 0 408.266 1.52436 415.473 4.5753C422.675 7.62629 428.906 11.8054 434.166 17.117C439.423 22.4285 443.553 28.6863 446.55 35.8904C449.546 43.0946 451.047 50.7966 451.047 58.9989C451.047 67.2034 449.546 74.9098 446.55 82.1117C443.553 89.3157 439.423 95.5736 434.166 100.883C428.906 106.195 422.675 110.376 415.473 113.425C408.266 116.473 400.458 118 392.046 118ZM392.046 97.8083C397.303 97.8083 402.221 96.8619 406.796 94.9673C411.369 93.0748 415.366 90.4482 418.786 87.0811C422.2 83.7162 424.883 79.6411 426.832 74.8536C428.776 70.0703 429.749 64.7847 429.749 58.9989C429.749 53.2175 428.776 47.934 426.832 43.1465C424.883 38.361 422.2 34.2859 418.786 30.921C415.366 27.5539 411.369 24.9251 406.796 23.0326C402.221 21.1402 397.303 20.1939 392.046 20.1939C386.786 20.1939 381.871 21.1402 377.296 23.0326C372.72 24.9251 368.723 27.5539 365.306 30.921C361.887 34.2859 359.206 38.361 357.262 43.1465C355.313 47.934 354.343 53.2175 354.343 58.9989C354.343 64.7847 355.313 70.0703 357.262 74.8536C359.206 79.6411 361.887 83.7162 365.306 87.0811C368.723 90.4482 372.72 93.0748 377.296 94.9673C381.871 96.8619 386.786 97.8083 392.046 97.8083Z" fill="black"/>
<path d="M468.24 2.52466H489.538V95.2835H537.335V115.475H468.24V2.52466Z" fill="black"/>
<path d="M603.593 118C595.178 118 587.37 116.473 580.168 113.425C572.962 110.376 566.73 106.195 561.473 100.883C556.213 95.5736 552.086 89.3157 549.089 82.1117C546.092 74.9098 544.594 67.2034 544.594 58.9989C544.594 50.7966 546.092 43.0946 549.089 35.8904C552.086 28.6863 556.213 22.4285 561.473 17.117C566.73 11.8054 572.962 7.62629 580.168 4.5753C587.37 1.52436 595.178 0 603.593 0C612.005 0 619.816 1.52436 627.02 4.5753C634.222 7.62629 640.453 11.8054 645.715 17.117C650.97 22.4285 655.1 28.6863 658.096 35.8904C661.096 43.0946 662.594 50.7966 662.594 58.9989C662.594 67.2034 661.096 74.9098 658.096 82.1117C655.1 89.3157 650.97 95.5736 645.715 100.883C640.453 106.195 634.222 110.376 627.02 113.425C619.816 116.473 612.005 118 603.593 118ZM603.593 97.8083C608.85 97.8083 613.768 96.8619 618.343 94.9673C622.918 93.0748 626.913 90.4482 630.333 87.0811C633.75 83.7162 636.43 79.6411 638.379 74.8536C640.323 70.0703 641.296 64.7847 641.296 58.9989C641.296 53.2175 640.323 47.934 638.379 43.1465C636.43 38.361 633.75 34.2859 630.333 30.921C626.913 27.5539 622.918 24.9251 618.343 23.0326C613.768 21.1402 608.85 20.1939 603.593 20.1939C598.333 20.1939 593.418 21.1402 588.842 23.0326C584.269 24.9251 580.27 27.5539 576.853 30.921C573.436 34.2859 570.753 38.361 568.809 43.1465C566.862 47.934 565.89 53.2175 565.89 58.9989C565.89 64.7847 566.862 70.0703 568.809 74.8536C570.753 79.6411 573.436 83.7162 576.853 87.0811C580.27 90.4482 584.269 93.0748 588.842 94.9673C593.418 96.8619 598.333 97.8083 603.593 97.8083Z" fill="black"/>
</svg>
