<svg width="48" height="45" viewBox="0 0 48 45" fill="none" xmlns="http://www.w3.org/2000/svg">
<path d="M5.93143 40.5092L12.8983 38.1953L14.1531 38.8028C17.0571 40.2054 20.376 40.9528 24 40.9528C35.9863 40.9528 44.5714 32.4278 44.5714 22.1828C44.5714 11.9002 36.048 3.41274 24 3.41274C11.952 3.41274 3.42857 11.9002 3.42857 22.1828C3.44883 26.1178 4.75051 29.9401 7.13829 33.0762L8.29714 34.612L5.93143 40.5058V40.5092ZM3.50743 44.9116C3.19717 45.0151 2.86363 45.028 2.54623 44.9489C2.22882 44.8697 1.94081 44.7018 1.7162 44.4649C1.49159 44.2281 1.33977 43.9322 1.27868 43.6122C1.21758 43.2922 1.24977 42.9615 1.37143 42.6592L4.39886 35.1273C1.56405 31.3999 0.0205091 26.8577 0 22.1828C0 10.873 9.19543 0 24 0C38.8046 0 48 10.873 48 22.1828C48 33.4926 38.7086 44.3656 24 44.3656C19.7314 44.3656 15.9189 43.451 12.6583 41.8743L3.504 44.9116H3.50743Z" fill="#9155FD"/>
</svg>
